# xmcd
#
# Track frame offsets: 
#        150
#        9882
#        22157
#        46205
#        60110
#        74005
#        95385
#        109522
#        139572
#        161200
#        185672
#        210635
#        233975
#        266545
#        277458
#        293509
#        304272
#        320811
#        341587
#
# Disc length: 4791 seconds
#
# Revision: 0
# Processed by: cddbd v1.5.1PL0 Copyright (c) Steve Scherf et al.
# Submitted via: ExactAudioCopy v0.95a5
#
DISCID=1c12b513
DTITLE=Stevie Ray Vaughan and Double Trouble - Live At Carnegie Hall (19
DTITLE=84) and Greatest Hits vol. 2 (1995)
DYEAR=1984
DGENRE=Blues
TTITLE0=Intro
TTITLE1=Shuttle Buttin'
TTITLE2=Testifyin'
TTITLE3=Love Struck Baby
TTITLE4=Honey Bee
TTITLE5=Cold Shot
TTITLE6=Letter To My Girlfriend
TTITLE7=Dirty Pool
TTITLE8=Pride And Joy
TTITLE9=The Things That I Used To Do
TTITLE10=C.O.D.
TTITLE11=Iced Over
TTITLE12=Lenny
TTITLE13=Rude Mood
TTITLE14=Taxman
TTITLE15=The House Is Rockin'
TTITLE16=Pride And Joy
TTITLE17=Tightrope
TTITLE18=Change It
EXTD=
EXTT0=
EXTT1=
EXTT2=
EXTT3=
EXTT4=
EXTT5=
EXTT6=
EXTT7=
EXTT8=
EXTT9=
EXTT10=
EXTT11=
EXTT12=
EXTT13=
EXTT14=
EXTT15=
EXTT16=
EXTT17=
EXTT18=
PLAYORDER=
